<svg fill='white' height="512pt" viewBox="0 0 512 512.0005" width="512pt" xmlns="http://www.w3.org/2000/svg">
  <path d="M479.8945 187.5234l-90.1797 68.5274v-52.6016c0-11.0469-8.953-20-20-20H20c-11.0469 0-20 8.9531-20 20v288.5469c0 11.043 8.9531 19.996 20 19.996h349.7148c11.047 0 20-8.953 20-19.996v-52.6055l90.1797 68.5274c13.047 9.914 32.1016.6718 32.1016-15.922V203.4493c0-16.5039-18.9492-25.9219-32.1016-15.9258zM349.7148 471.9961H40V223.4492h309.7148zm122.2813-20.3203l-82.2813-62.5235V306.293l82.2813-62.5274zM87.9648 79.2383C129.6172 28.8828 190.8633 0 255.9961 0c65.1328 0 126.3789 28.8828 168.0351 79.2383 7.0391 8.5117 5.8477 21.121-2.664 28.1601-8.4883 7.0196-21.1016 5.8711-28.1602-2.664C359.1797 63.5937 309.168 40 255.996 40c-53.1679 0-103.1796 23.5937-137.207 64.7344-7.039 8.5117-19.6484 9.707-28.16 2.664-8.5118-7.039-9.7032-19.6484-2.6642-28.1601zm240.3555 32.2148c9.3984 5.8008 12.3125 18.125 6.5117 27.5235-5.793 9.3789-18.1093 12.3242-27.5273 6.5078-15.4024-9.5117-33.1445-14.539-51.3086-14.539-18.1602 0-35.9024 5.0273-51.3086 14.539-9.3984 5.8047-21.7188 2.8906-27.5234-6.5078-5.8047-9.3985-2.8907-21.7227 6.5078-27.5235 21.7265-13.418 46.7344-20.5078 72.3242-20.5078 25.5937 0 50.6016 7.0899 72.3242 20.5078zm0 0"/>
</svg>
