<svg fill='white' viewBox="0 -28 512.001 512" xmlns="http://www.w3.org/2000/svg">
  <path d="M256 455.5156c-7.289 0-14.3164-2.6406-19.793-7.4375-20.6836-18.086-40.625-35.082-58.2187-50.0742l-.0899-.0781c-51.582-43.957-96.125-81.918-127.1172-119.3125C16.1367 236.8086 0 197.1719 0 153.871c0-42.0703 14.4258-80.8828 40.6172-109.293C67.121 15.8321 103.4882 0 143.0312 0c29.5547 0 56.6211 9.3438 80.4454 27.7695C235.5 37.0703 246.3984 48.4531 256 61.7305c9.6055-13.2774 20.5-24.6602 32.5273-33.961C312.3516 9.3438 339.418 0 368.9727 0c39.539 0 75.9101 15.832 102.414 44.5781C497.5781 72.9883 512 111.8008 512 153.8711c0 43.3008-16.1328 82.9375-50.7773 124.7383-30.9922 37.3984-75.5313 75.3554-127.1055 119.3086-17.625 15.0156-37.5977 32.039-58.3281 50.168-5.4727 4.789-12.504 7.4296-19.7891 7.4296zM143.0312 29.9922c-31.0664 0-59.6054 12.3984-80.3671 34.914-21.0703 22.8555-32.6758 54.4493-32.6758 88.9649 0 36.418 13.5351 68.9883 43.8828 105.6055 29.332 35.3945 72.961 72.5742 123.4766 115.625l.0937.078c17.6602 15.0509 37.6797 32.1134 58.5156 50.3321 20.961-18.2539 41.0118-35.3437 58.707-50.418 50.5118-43.0507 94.1368-80.2226 123.4688-115.6171 30.3438-36.6172 43.879-69.1875 43.879-105.6055 0-34.5156-11.6056-66.1094-32.6759-88.9649-20.7578-22.5156-49.3007-34.914-80.3632-34.914-22.7579 0-43.6524 7.2344-62.1016 21.5-16.4414 12.7187-27.8945 28.7969-34.6094 40.0469-3.4531 5.7851-9.5312 9.2382-16.2617 9.2382s-12.8086-3.453-16.2617-9.2382c-6.711-11.25-18.164-27.3282-34.6094-40.047-18.4492-14.2655-39.3437-21.5-62.0977-21.5zm0 0"/>
</svg>
