<svg fill='white' viewBox="-42 0 512 512.001" xmlns="http://www.w3.org/2000/svg">
  <path d="M210.3516 246.6328c33.8828 0 63.2187-12.1523 87.1953-36.1289 23.9687-23.9726 36.125-53.3047 36.125-87.1914 0-33.875-12.1524-63.211-36.129-87.1914C273.5665 12.1523 244.2306 0 210.3517 0c-33.8868 0-63.2188 12.1523-87.1914 36.125s-36.129 53.3086-36.129 87.1875c0 33.8867 12.1563 63.2227 36.129 87.1953 23.9804 23.9688 53.3164 36.125 87.1914 36.125zm-65.9727-189.293c18.3945-18.3945 39.9727-27.3359 65.9727-27.3359 25.996 0 47.578 8.9414 65.9765 27.336 18.3946 18.3984 27.3399 39.9804 27.3399 65.9726 0 26-8.9453 47.5781-27.3399 65.9766-18.3984 18.3984-39.9804 27.3398-65.9765 27.3398-25.9922 0-47.5703-8.9453-65.9727-27.3398-18.3984-18.3946-27.3437-39.9766-27.3437-65.9766 0-25.9922 8.9453-47.5742 27.3437-65.9727zm0 0M426.129 393.7031c-.6915-9.9765-2.09-20.8594-4.1485-32.3515-2.0782-11.5782-4.754-22.5235-7.957-32.5274-3.3126-10.3398-7.8087-20.5508-13.375-30.336-5.7696-10.1562-12.5508-19-20.1602-26.2773-7.957-7.6132-17.6992-13.7343-28.9649-18.1992-11.2265-4.4414-23.668-6.6914-36.9765-6.6914-5.2266 0-10.2813 2.1445-20.043 8.5-6.0078 3.918-13.0351 8.4492-20.8789 13.461-6.707 4.2734-15.793 8.2773-27.0156 11.9023-10.9492 3.543-22.0664 5.3398-33.043 5.3398-10.9687 0-22.086-1.7968-33.043-5.3398-11.2109-3.6211-20.3007-7.625-26.996-11.8984-7.7696-4.9649-14.8008-9.4961-20.8985-13.4688-9.7539-6.3555-14.8086-8.5-20.0351-8.5-13.3126 0-25.75 2.254-36.9727 6.6992-11.2578 4.457-21.004 10.5781-28.9688 18.1992-7.6093 7.2813-14.3906 16.1211-20.1562 26.2735-5.5586 9.7851-10.0586 19.9922-13.3711 30.3398-3.1992 10.004-5.875 20.9453-7.9531 32.5235-2.0625 11.4765-3.457 22.3632-4.1485 32.3632C.3437 403.4922 0 413.668 0 423.9492c0 26.7266 8.496 48.3633 25.25 64.3203C41.7969 504.0156 63.6875 512 90.3164 512h246.5313c26.621 0 48.5117-7.9844 65.0625-23.7305 16.7578-15.9453 25.2539-37.5898 25.2539-64.3242-.004-10.3164-.3516-20.4922-1.0352-30.2422zm-44.9063 72.8281c-10.9336 10.4063-25.4493 15.4649-44.379 15.4649H90.3165c-18.9336 0-33.4492-5.0586-44.3789-15.461-10.7227-10.207-15.9336-24.1406-15.9336-42.5859 0-9.5937.3164-19.0664.9492-28.1601.6172-8.922 1.879-18.7227 3.75-29.1368 1.8477-10.2851 4.1992-19.9375 6.9961-28.6757 2.6836-8.379 6.3438-16.6758 10.8828-24.668 4.332-7.6172 9.3164-14.1524 14.8164-19.418 5.1446-4.9258 11.629-8.957 19.2696-11.9804 7.0664-2.797 15.0078-4.3282 23.6289-4.5586 1.0508.5586 2.9219 1.625 5.9531 3.6015 6.168 4.0196 13.2773 8.6055 21.1367 13.625 8.8594 5.6485 20.2735 10.75 33.9102 15.1524 13.9414 4.5078 28.1601 6.7968 42.2734 6.7968 14.1133 0 28.336-2.289 42.2695-6.793 13.6485-4.41 25.0586-9.5077 33.9297-15.164 8.043-5.1406 14.9532-9.5937 21.1211-13.6172 3.0313-1.9726 4.9024-3.043 5.9531-3.6015 8.625.2304 16.5665 1.7617 23.6368 4.5586 7.6367 3.0234 14.121 7.0585 19.2656 11.9804 5.5 5.2617 10.4844 11.7969 14.8164 19.4219 4.543 7.9883 8.207 16.289 10.8867 24.6602 2.8008 8.75 5.1563 18.3984 7 28.6757 1.8672 10.4336 3.1328 20.2383 3.75 29.1446v.0078c.6367 9.0586.957 18.5273.961 28.1484-.004 18.4492-5.2149 32.379-15.9375 42.582zm0 0"/>
</svg>
