<svg fill='white' height="511pt" viewBox="0 -11 511.9982 511" width="511pt" xmlns="http://www.w3.org/2000/svg">
  <path d="M510.6406 185.5078c-3.875-11.9336-15.4258-20.1328-31.6836-22.496l-132.5117-19.2579-59.2617-120.0703C279.914 8.9492 268.5469.5 256 .5s-23.914 8.4492-31.1875 23.1836l-59.254 120.0703-132.5194 19.2578c-16.2578 2.3633-27.8086 10.5625-31.6836 22.4961-3.875 11.9336.6484 25.3555 12.414 36.8203l95.8907 93.4649-22.6407 131.9804c-2.8945 16.879 2.039 26.9961 6.6875 32.5078 5.457 6.4688 13.4063 10.0313 22.3907 10.0313 6.7656 0 13.957-1.9766 21.3789-5.879L256 422.1212l118.5273 62.3125c7.422 3.9023 14.6133 5.8789 21.375 5.8828h.004c8.9843 0 16.9375-3.5664 22.3906-10.0352 4.6484-5.5117 9.582-15.6289 6.6836-32.5078L402.3477 315.793l95.8828-93.461c11.7656-11.4687 16.289-24.8906 12.4101-36.8242zm-33.3476 15.3399l-101.5313 98.9687c-3.5351 3.4453-5.1484 8.414-4.3125 13.2774l23.9649 139.7539c.6992 4.0664.3984 6.375.121 7.453-1.0703-.0702-3.3671-.4843-7.0468-2.4179l-125.5078-65.9844c-2.1875-1.1484-4.582-1.7226-6.9805-1.7226s-4.7969.5742-6.9805 1.7226l-125.5 65.9805c-3.6797 1.9336-5.9804 2.3516-7.0508 2.4219-.2734-1.0781-.578-3.3867.1211-7.4531l23.9727-139.75c.832-4.8672-.7813-9.836-4.3164-13.2774L34.7109 200.8477c-2.953-2.879-4.0664-4.922-4.4804-5.957.9414-.5938 3.043-1.5938 7.125-2.1876l140.3242-20.3906a15.0014 15.0014 0 0011.293-8.207l62.746-127.1446c1.8282-3.6992 3.4258-5.3867 4.2852-6.1015.8555.7148 2.457 2.4023 4.2813 6.1015l62.75 127.1446c2.1875 4.4258 6.4101 7.496 11.2968 8.207l140.3125 20.3906c4.086.5938 6.1836 1.5938 7.125 2.1875-.414 1.0313-1.5234 3.0782-4.4765 5.957zm0 0"/>
</svg>
